<svg xmlns="http://www.w3.org/2000/svg" viewBox="0 0 410 404"><defs><linearGradient id="a" x1="202.5" x2="405.5" y1="37.5" y2="169" gradientUnits="userSpaceOnUse"><stop stop-color="#028e4b"/><stop offset="1" stop-color="#6bc79d"/></linearGradient><linearGradient id="b" x1="49" x2="205" y1="8" y2="278" gradientUnits="userSpaceOnUse"><stop stop-color="#45b886"/><stop offset="1" stop-color="#028e4b"/></linearGradient></defs><path fill="url(#a)" d="M399.6 54.6 215.6 388c-5.6 10.2-20.6 10.1-26.1-.1L9.4 54.5c-4.6-8.5.6-18.9 9.8-19.9L203 10.1c1.4-.2 2.8-.2 4.2 0l181.7 24.4c9.2 1.2 14.5 11.6 9.9 20Z"/><path fill="url(#b)" d="M292.5 1.6 156.4 24.2c-6.8 1.1-12 6.5-12.8 13.3L122.5 215c-.7 6.1 4.8 11 10.8 9.7l42-9.4c6.6-1.5 12.5 4.3 11 10.9l-12.5 60.2c-1.6 7.7 6.5 13.8 13.6 10.3l26-13.1c5.3-2.7 11.7.6 12.3 6.5l3.7 33.4c.9 8.3 11.9 10.6 16.1 3.4l3.1-5.3 74.2-286c2-7.5-4-14.7-11.7-13.4Z"/></svg>
